<?xml version="1.0" standalone="no"?>
<!DOCTYPE svg PUBLIC "-//W3C//DTD SVG 20010904//EN"
 "http://www.w3.org/TR/2001/REC-SVG-20010904/DTD/svg10.dtd">
<svg version="1.0" xmlns="http://www.w3.org/2000/svg"
 width="800.000000pt" height="800.000000pt" viewBox="0 0 800.000000 800.000000"
 preserveAspectRatio="xMidYMid meet">
<metadata>
Created by potrace 1.11, written by Peter Selinger 2001-2013
</metadata>
<g transform="translate(0.000000,800.000000) scale(0.100000,-0.100000)"
fill="#000000" stroke="none">
<path d="M3749 7996 c-2 -2 -44 -6 -94 -10 -201 -15 -460 -60 -691 -121 -119
-31 -339 -101 -389 -124 -11 -5 -56 -24 -100 -41 -89 -36 -370 -172 -455 -221
-207 -120 -467 -302 -606 -424 -181 -158 -374 -353 -490 -495 -16 -19 -34 -40
-39 -46 -6 -6 -51 -66 -100 -133 -132 -178 -264 -394 -359 -586 -85 -170 -95
-193 -136 -295 -12 -30 -26 -64 -31 -75 -64 -146 -175 -555 -204 -755 -4 -25
-8 -52 -10 -60 -2 -8 -6 -40 -10 -70 -4 -30 -8 -65 -10 -78 -27 -172 -27 -755
0 -923 2 -13 6 -46 9 -74 3 -27 8 -61 10 -75 3 -14 10 -54 16 -90 93 -556 339
-1143 679 -1619 473 -662 1134 -1166 1886 -1439 132 -48 277 -94 355 -112 221
-53 220 -53 385 -80 243 -39 318 -44 610 -45 243 0 380 6 500 21 49 6 330 53
350 58 6 2 28 6 50 11 120 23 458 124 550 164 11 5 74 32 140 59 151 64 188
81 304 143 487 259 925 623 1264 1049 219 274 423 619 552 930 26 63 51 124
56 135 32 74 123 366 149 485 5 19 11 46 15 60 9 38 33 160 39 205 4 23 8 52
11 65 3 14 7 49 11 78 3 29 7 62 9 72 28 143 27 718 0 925 -3 17 -7 50 -10 75
-2 25 -6 54 -9 65 -2 11 -9 54 -16 95 -7 41 -19 104 -27 140 -8 36 -17 74 -19
84 -11 56 -50 196 -86 306 -382 1182 -1305 2131 -2473 2543 -101 36 -251 82
-315 97 -19 5 -64 16 -99 24 -70 18 -300 61 -371 70 -25 3 -67 8 -95 11 -27 3
-66 8 -85 11 -40 6 -615 15 -621 10z"/>
</g>
</svg>
